<?xml version="1.0" ?>
<svg
   xmlns="http://www.w3.org/2000/svg"
   xmlns:dc="http://purl.org/dc/elements/1.1/"
   xmlns:cc="http://web.resource.org/cc/"
   xmlns:rdf="http://www.w3.org/1999/02/22-rdf-syntax-ns#"
   xmlns:svg="http://www.w3.org/2000/svg"
   xmlns:xlink="http://www.w3.org/1999/xlink"
   width="960px"
   height="960px">
  <defs>
    <linearGradient id="linearGradient1">
      <stop style="stop-color:#ef2929" offset="0" />
      <stop style="stop-color:#cc0000" offset="1" />
    </linearGradient>
    
    <linearGradient id="linearGradient2">
      <stop offset="0" style="stop-color:black;stop-opacity:1;" />
      <stop offset="1" style="stop-color:black;stop-opacity:0;" />
    </linearGradient>
    
    <radialGradient id="radialGradient1"
       xlink:href="#linearGradient2"
       gradientTransform="matrix(1,0,0,0.500000,1.635742e-14,20)"
       gradientUnits="userSpaceOnUse"
       r="17.142857"
       fy="40"
       fx="23.857143"
       cy="40"
       cx="23.857143" />
    
    <radialGradient id="radialGradient2"
       xlink:href="#linearGradient1"
       gradientTransform="matrix(-1.262871,2.796553e-2,-3.606716e-2,-1.629656,47.36662,36.49787)"
       gradientUnits="userSpaceOnUse"
       cx="20.935379"
       cy="12.592707"
       fx="20.935379"
       fy="12.592707"
       r="19.967958" />
  </defs>
  
  <metadata>
    <rdf:RDF>
      <cc:Work rdf:about="">
        <dc:format>image/svg+xml</dc:format>
        <dc:type rdf:resource="http://purl.org/dc/dcmitype/StillImage" />
        <dc:title>Delete</dc:title>
        <dc:date>2007-02-20</dc:date>
        <dc:creator>
          <rdf:Bag>
            <rdf:li><cc:Agent><dc:title>Andreas Nilsson</dc:title></cc:Agent></rdf:li>
            <rdf:li><cc:Agent><dc:title>Nicholas Shanks</dc:title></cc:Agent></rdf:li>
          </rdf:Bag>
        </dc:creator>
        <dc:source>http://tango-project.org/</dc:source>
        <dc:subject>
          <rdf:Bag>
            <rdf:li>delete</rdf:li>
            <rdf:li>remove</rdf:li>
          </rdf:Bag>
        </dc:subject>
        <cc:license rdf:resource="http://creativecommons.org/licenses/by-sa/2.0/" />
      </cc:Work>
      <cc:License rdf:about="http://creativecommons.org/licenses/by-sa/2.0/">
        <cc:permits rdf:resource="http://web.resource.org/cc/Reproduction" />
        <cc:permits rdf:resource="http://web.resource.org/cc/Distribution" />
        <cc:permits rdf:resource="http://web.resource.org/cc/DerivativeWorks" />
        <cc:requires rdf:resource="http://web.resource.org/cc/Notice" />
        <cc:requires rdf:resource="http://web.resource.org/cc/Attribution" />
        <cc:requires rdf:resource="http://web.resource.org/cc/ShareAlike" />
      </cc:License>
    </rdf:RDF>
  </metadata>
  <g transform="scale(20,20)">
    <path style="opacity:0.52688169;color:black;fill:url(#radialGradient1);stroke:none;"
       transform="matrix(1.225,0,0,0.408334,-5.221224,25.17622)"
       d="M 41 40 A 17.142857 8.5714283 0 1 1  6.7142868,40 A 17.142857 8.5714283 0 1 1  41 40 z" />
    
    <path style="fill:url(#radialGradient2);stroke:#a40000;"
       d="M 24.035816,3.5720836 C 13.289574,3.5720836 4.5678570,12.294146 4.5678580,23.040834 C 4.5678580,33.787521 13.289575,42.509583 24.035816,42.509584 C 34.782058,42.509584 43.503776,33.787520 43.503775,23.040834 C 43.503775,12.294147 34.782058,3.5720836 24.035816,3.5720836 z M 24.004517,8.4783336 C 32.049892,8.4783336 38.589837,14.990984 38.589837,23.009584 C 38.589837,25.981868 37.657973,28.737374 36.117218,31.040834 L 15.960683,10.915834 C 18.272680,9.3813936 21.022553,8.4783336 24.004517,8.4783336 z M 12.267404,14.447084 L 32.580435,34.728334 C 30.166684,36.490827 27.221538,37.540834 24.004517,37.540834 C 15.959141,37.540834 9.4191980,31.028184 9.4191980,23.009584 C 9.4191980,19.803270 10.497961,16.851741 12.267404,14.447084 z " />
    
    <path style="opacity:0.55376345;fill:none;stroke:white;"
       transform="matrix(1.007576,0,0,1.019157,-4.568194,-4.726048)"
       d="M 46.714287 27.214285 A 18.357143 18.142857 0 1 1  10,27.214285 A 18.357143 18.142857 0 1 1  46.714287 27.214285 z" />
    
    <path style="opacity:0.47849461;fill:none;stroke:white;"
       d="M 15.075203,11.366727 L 35.646632,31.938156" />
    
    <!--path style="opacity:0.30645159;fill:white;stroke:none;"
       d="M 4.4323460,19.795298 C 4.4561550,21.985774 9.8371077,20.461965 9.8609167,21.652441 C 9.8132977,19.842917 11.837108,15.961965 12.289489,15.152441 L 20.932346,23.509584 C 20.884728,21.771489 27.122823,23.390537 27.003776,21.509584 L 16.718061,10.866727 C 18.241871,10.081013 21.837109,8.7952976 24.075204,8.9381546 C 32.313299,9.1524406 38.051394,16.795298 38.075204,22.009584 L 37.503775,27.009584 C 37.384727,28.866727 43.337108,26.795298 43.146632,28.295298 C 43.551394,27.152441 44.027584,24.795298 43.932346,22.081013 C 43.884727,12.438155 35.765679,3.3667266 24.003775,3.1524406 C 15.420441,3.2833936 8.4978220,8.1822026 6.1287740,14.661370 C 5.9933010,14.694830 4.6585360,16.842917 4.4323460,19.795298 z " /-->
  </g>
</svg>
